# xmcd CD database file
#
# Track frame offsets:
#	150
#	17019
#	27320
#	52858
#	77686
#	93695
#	126351
#	138826
#	153843
#
# Disc length: 2317 seconds
#
# Revision: 0
# Processed by: cddbd v1.5.1PL0 Copyright (c) Steve Scherf et al.
# Submitted via: CDex 1.50Beta7
#
DISCID=67090b09
DTITLE=Various Artist - A&B Sound Jazz Sampler
DYEAR=2005
DGENRE=Jazz
TTITLE0=John Pizzarelli - Knowing You
TTITLE1=Ella Fitzgerald - Old McDonald
TTITLE2=Denzal Sinclaire - The Look of Love
TTITLE3=John Scofield - Hit the Road Jack
TTITLE4=Lizz Wright - Hit the Ground
TTITLE5=Dave Holland Big Band - Last Minute Man
TTITLE6=De Phazz - Depression Royale
TTITLE7=Beady Belle - Closer
TTITLE8=Bugge Wesseltoft - Hope
EXTD=YEAR: 2005
EXTT0=
EXTT1=
EXTT2=
EXTT3=
EXTT4=
EXTT5=
EXTT6=
EXTT7=
EXTT8=
PLAYORDER=
